<?xml version="1.0" encoding="UTF-8" standalone="no"?>
<!DOCTYPE svg PUBLIC "-//W3C//DTD SVG 1.1//EN" "http://www.w3.org/Graphics/SVG/1.1/DTD/svg11.dtd">
<svg xmlns="http://www.w3.org/2000/svg" version="1.1" viewBox="0.00 0.00 263.00 96.00">
<g stroke-width="2.00" fill="none" stroke-linecap="butt">
<path stroke="#ffb480" vector-effect="non-scaling-stroke" d="
  M 48.5078 22.1116
  A 10.41 8.30 87.7 0 0 56.3833 11.3769
  A 10.41 8.30 87.7 0 0 47.6722 1.3084
  A 10.41 8.30 87.7 0 0 39.7967 12.0431
  A 10.41 8.30 87.7 0 0 48.5078 22.1116"
/>
<path stroke="#c07c4b" vector-effect="non-scaling-stroke" d="
  M 160.46 33.51
  L 140.43 70.51"
/>
<path stroke="#ffb480" vector-effect="non-scaling-stroke" d="
  M 140.43 70.51
  L 132.43 58.97
  A 0.94 0.94 0.0 0 1 133.04 57.51
  C 141.81 55.95 147.89 50.30 149.01 41.32
  C 151.99 17.37 118.36 14.78 102.64 15.29
  Q 102.06 15.30 101.97 15.88
  L 99.86 29.43
  A 0.85 0.85 0.0 0 0 100.43 30.37
  Q 103.64 31.45 106.96 30.65
  A 0.41 0.41 0.0 0 1 107.46 31.15
  L 104.08 45.53"
/>
<path stroke="#a1521d" vector-effect="non-scaling-stroke" d="
  M 104.08 45.53
  L 99.48 33.79
  Q 99.31 33.36 98.87 33.48
  Q 98.60 33.55 98.24 33.46"
/>
<path stroke="#ffb480" vector-effect="non-scaling-stroke" d="
  M 98.24 33.46
  C 89.12 14.18 64.75 10.05 52.34 29.32
  C 43.57 42.92 45.67 55.67 50.57 70.84"
/>
<path stroke="#a1521d" vector-effect="non-scaling-stroke" d="
  M 50.57 70.84
  Q 50.15 71.23 50.18 70.85"
/>
<path stroke="#ffb480" vector-effect="non-scaling-stroke" d="
  M 50.18 70.85
  L 38.56 73.20"
/>
<path stroke="#d15404" vector-effect="non-scaling-stroke" d="
  M 38.56 73.20
  Q 38.43 73.04 38.32 72.92
  Q 38.09 72.67 38.07 72.33
  L 37.34 57.72"
/>
<path stroke="#bd713e" vector-effect="non-scaling-stroke" d="
  M 37.34 57.72
  L 36.77 47.77"
/>
<path stroke="#e99d6b" vector-effect="non-scaling-stroke" d="
  M 36.77 47.77
  L 35.48 12.74
  Q 35.46 12.18 34.93 12.00
  L 29.30 10.09"
/>
<path stroke="#ffb480" vector-effect="non-scaling-stroke" d="
  M 29.30 10.09
  L 8.83 15.89
  A 0.81 0.79 -11.7 0 0 8.25 16.76
  L 17.38 90.75
  Q 17.49 91.66 18.40 91.58
  Q 36.09 90.13 54.31 88.54
  C 54.93 88.49 55.34 88.19 55.93 87.93"
/>
<path stroke="#d48a58" vector-effect="non-scaling-stroke" d="
  M 55.93 87.93
  Q 56.61 87.92 57.51 87.42"
/>
<path stroke="#a1521d" vector-effect="non-scaling-stroke" d="
  M 57.51 87.42
  Q 60.25 88.29 61.51 82.60"
/>
<path stroke="#ffb480" vector-effect="non-scaling-stroke" d="
  M 61.51 82.60
  Q 67.06 84.98 68.75 85.50
  C 78.81 88.58 89.45 83.07 95.48 74.73
  C 98.55 70.48 99.29 64.65 100.40 59.47"
/>
<path stroke="#ffb480" vector-effect="non-scaling-stroke" d="
  M 100.40 59.47
  L 95.37 88.02
  A 0.40 0.40 0.0 0 0 95.81 88.49
  Q 104.71 87.52 113.69 86.73
  C 118.00 86.34 117.76 81.66 118.26 78.51"
/>
<path stroke="#d15404" vector-effect="non-scaling-stroke" d="
  M 118.26 78.51
  C 120.24 76.77 119.76 73.36 119.44 70.98
  A 0.85 0.84 69.0 0 1 119.79 70.19
  L 121.61 68.92"
/>
<path stroke="#ffb480" vector-effect="non-scaling-stroke" d="
  M 121.61 68.92
  L 131.46 91.24
  A 0.67 0.67 0.0 0 0 132.19 91.64
  L 150.53 88.66
  A 0.72 0.71 69.5 0 0 151.02 87.58
  L 146.15 79.63"
/>
<path stroke="#c07c4b" vector-effect="non-scaling-stroke" d="
  M 146.15 79.63
  Q 146.87 79.40 146.98 79.13"
/>
<path stroke="#ffb480" vector-effect="non-scaling-stroke" d="
  M 146.98 79.13
  L 153.45 82.54
  Q 153.99 82.82 154.24 82.27
  L 159.37 70.82
  Q 159.60 70.30 160.16 70.36
  L 176.52 71.92"
/>
<path stroke="#a1521d" vector-effect="non-scaling-stroke" d="
  M 176.52 71.92
  L 180.03 83.38"
/>
<path stroke="#c07c4b" vector-effect="non-scaling-stroke" d="
  M 180.03 83.38
  L 182.36 84.76"
/>
<path stroke="#ffb480" vector-effect="non-scaling-stroke" d="
  M 182.36 84.76
  Q 183.34 86.10 184.76 86.05
  Q 190.78 85.87 201.02 85.01
  Q 201.55 84.96 201.47 84.44
  L 200.87 80.37"
/>
<path stroke="#d48a58" vector-effect="non-scaling-stroke" d="
  M 200.87 80.37
  L 202.76 78.38"
/>
<path stroke="#ffb480" vector-effect="non-scaling-stroke" d="
  M 202.76 78.38
  L 211.62 69.30"
/>
<path stroke="#d48a58" vector-effect="non-scaling-stroke" d="
  M 211.62 69.30
  L 217.04 82.61
  A 1.07 1.06 2.5 0 0 217.55 83.16
  L 224.32 86.52"
/>
<path stroke="#ffb480" vector-effect="non-scaling-stroke" d="
  M 224.32 86.52
  L 225.54 87.02
  Q 226.01 87.21 226.43 86.91
  L 238.24 78.57
  A 0.59 0.58 -29.8 0 0 238.44 77.85
  L 227.28 52.71
  A 1.50 1.50 0.0 0 1 227.55 51.07
  L 247.99 29.02
  A 1.04 1.04 0.0 0 0 248.08 27.70
  L 240.38 16.86
  Q 240.11 16.48 239.64 16.58
  Q 238.77 16.77 238.54 17.31"
/>
<path stroke="#e99d6b" vector-effect="non-scaling-stroke" d="
  M 238.54 17.31
  C 234.45 17.35 231.69 18.17 228.89 21.46
  Q 224.95 26.08 221.04 30.72
  Q 220.72 31.10 220.87 31.58
  Q 221.37 33.17 222.42 34.36"
/>
<path stroke="#ffb480" vector-effect="non-scaling-stroke" d="
  M 222.42 34.36
  Q 222.17 35.21 221.59 35.45
  Q 221.00 35.70 220.76 35.10
  L 211.80 12.17
  A 0.91 0.91 0.0 0 0 210.60 11.66
  L 196.53 17.61"
/>
<path stroke="#d48a58" vector-effect="non-scaling-stroke" d="
  M 196.53 17.61
  L 192.86 19.18
  Q 191.98 19.56 192.33 20.44
  L 202.50 46.17
  A 2.12 2.11 -31.3 0 1 201.92 48.53
  L 194.82 54.74"
/>
<path stroke="#a1521d" vector-effect="non-scaling-stroke" d="
  M 194.82 54.74
  L 193.26 55.63"
/>
<path stroke="#ffb480" vector-effect="non-scaling-stroke" d="
  M 193.26 55.63
  L 179.52 10.23
  Q 179.34 9.64 178.72 9.68
  L 174.07 9.98
  Q 173.47 10.02 173.18 10.55
  L 160.46 33.51"
/>
<path stroke="#a19e9c" vector-effect="non-scaling-stroke" d="
  M 193.26 55.63
  L 194.86 59.63
  Q 195.17 60.41 195.59 59.68
  L 196.43 58.24"
/>
<path stroke="#d4d6d8" vector-effect="non-scaling-stroke" d="
  M 196.43 58.24
  L 207.75 47.21
  A 2.06 2.04 -33.7 0 0 208.21 44.95
  L 196.53 17.61"
/>
<path stroke="#e9e9ea" vector-effect="non-scaling-stroke" d="
  M 222.42 34.36
  L 238.54 17.31"
/>
<path stroke="#d4d6d8" vector-effect="non-scaling-stroke" d="
  M 224.32 86.52
  L 216.49 64.63
  Q 216.28 64.06 215.88 64.51
  L 211.62 69.30"
/>
<path stroke="#d4d6d8" vector-effect="non-scaling-stroke" d="
  M 202.76 78.38
  L 197.99 65.00
  A 0.40 0.40 0.0 0 0 197.41 64.79
  L 197.19 64.92
  Q 196.72 65.20 196.86 65.72
  L 200.87 80.37"
/>
<path stroke="#c0c7ca" vector-effect="non-scaling-stroke" d="
  M 182.36 84.76
  L 180.30 72.20"
/>
<path stroke="#a19e9c" vector-effect="non-scaling-stroke" d="
  M 180.30 72.20
  Q 177.61 72.48 176.52 71.92"
/>
<path stroke="#c0c7ca" vector-effect="non-scaling-stroke" d="
  M 146.98 79.13
  Q 145.83 75.96 143.85 72.99
  C 143.14 71.92 142.66 70.28 143.20 69.26
  Q 152.19 52.50 161.03 35.65
  Q 161.28 35.19 160.96 34.77
  Q 160.48 34.14 160.46 33.51"
/>
<path stroke="#626667" vector-effect="non-scaling-stroke" d="
  M 180.30 72.20
  Q 178.41 77.27 180.03 83.38"
/>
<path stroke="#757475" vector-effect="non-scaling-stroke" d="
  M 196.43 58.24
  Q 194.72 56.11 194.82 54.74"
/>
<path stroke="#c0c7ca" vector-effect="non-scaling-stroke" d="
  M 140.43 70.51
  C 142.29 73.08 145.73 76.18 146.15 79.63"
/>
<path stroke="#d19f84" vector-effect="non-scaling-stroke" d="
  M 121.61 68.92
  L 119.09 63.97
  Q 118.77 63.32 118.74 64.05
  L 118.26 78.51"
/>
<path stroke="#a19e9c" vector-effect="non-scaling-stroke" d="
  M 100.40 59.47
  L 104.08 45.53"
/>
<path stroke="#a19e9c" vector-effect="non-scaling-stroke" d="
  M 98.24 33.46
  Q 104.39 46.20 100.40 59.47"
/>
<path stroke="#a19e9c" vector-effect="non-scaling-stroke" d="
  M 61.51 82.60
  Q 54.46 78.27 50.57 70.84"
/>
<path stroke="#757475" vector-effect="non-scaling-stroke" d="
  M 57.51 87.42
  Q 59.07 86.68 59.66 85.60
  Q 59.93 85.10 59.56 84.67
  L 53.83 78.06"
/>
<path stroke="#e9e9ea" vector-effect="non-scaling-stroke" d="
  M 29.30 10.09
  L 30.45 39.51"
/>
<path stroke="#bdbdbe" vector-effect="non-scaling-stroke" d="
  M 30.45 39.51
  L 31.65 73.81
  Q 31.68 74.61 32.47 74.43
  L 37.42 73.29"
/>
<path stroke="#d19f84" vector-effect="non-scaling-stroke" d="
  M 37.42 73.29
  L 38.56 73.20"
/>
<path stroke="#a19e9c" vector-effect="non-scaling-stroke" d="
  M 50.18 70.85
  L 53.83 78.06"
/>
<path stroke="#d4d6d8" vector-effect="non-scaling-stroke" d="
  M 53.83 78.06
  Q 53.67 78.52 53.19 78.93
  Q 52.84 79.23 53.09 79.62
  Q 55.52 83.46 55.93 87.93"
/>
<path stroke="#a6a6a9" vector-effect="non-scaling-stroke" d="
  M 36.77 47.77
  Q 35.93 48.37 35.27 47.66
  Q 34.91 47.27 35.00 46.75
  Q 35.10 46.12 34.79 45.54
  A 0.31 0.31 0.0 0 0 34.22 45.75
  Q 34.47 47.03 33.79 48.25
  A 0.74 0.73 65.5 0 1 32.43 47.74
  Q 33.28 43.65 32.01 39.67
  Q 31.87 39.23 31.41 39.24
  Q 30.93 39.25 30.45 39.51"
/>
<path stroke="#8f5d42" vector-effect="non-scaling-stroke" d="
  M 37.34 57.72
  L 37.42 73.29"
/>
<path stroke="#ffb480" vector-effect="non-scaling-stroke" d="
  M 48.8136 17.7501
  A 5.30 3.75 86.5 0 0 52.2330 12.2311
  A 5.30 3.75 86.5 0 0 48.1664 7.1699
  A 5.30 3.75 86.5 0 0 44.7470 12.6889
  A 5.30 3.75 86.5 0 0 48.8136 17.7501"
/>
<path stroke="#c0c7ca" vector-effect="non-scaling-stroke" d="
  M 171.24 57.06
  L 175.88 57.22
  Q 176.80 57.26 176.64 56.34
  L 174.41 43.71"
/>
<path stroke="#ffb480" vector-effect="non-scaling-stroke" d="
  M 174.41 43.71
  L 174.19 41.64
  Q 174.08 40.54 173.60 41.54
  L 166.91 55.71
  Q 166.62 56.32 167.25 56.56
  Q 169.04 57.25 171.24 57.06"
/>
<path stroke="#c07c4b" vector-effect="non-scaling-stroke" d="
  M 174.41 43.71
  L 172.74 47.34
  Q 172.54 47.79 172.70 48.25
  Q 173.10 49.35 173.01 50.52"
/>
<path stroke="#d15404" vector-effect="non-scaling-stroke" d="
  M 173.01 50.52
  L 173.04 54.23
  Q 173.04 54.65 173.46 54.62
  Q 173.76 54.60 173.93 54.73"
/>
<path stroke="#c07c4b" vector-effect="non-scaling-stroke" d="
  M 173.93 54.73
  L 174.21 56.44
  Q 174.30 56.97 173.76 56.99
  L 171.24 57.06"
/>
<path stroke="#92674f" vector-effect="non-scaling-stroke" d="
  M 173.93 54.73
  Q 174.42 52.47 173.01 50.52"
/>
<path stroke="#ffb480" vector-effect="non-scaling-stroke" d="
  M 122.60 47.83
  Q 121.96 49.57 122.43 50.33
  A 0.69 0.69 0.0 0 0 123.33 50.57
  Q 131.74 46.18 128.52 36.68
  Q 127.98 35.09 125.64 34.43"
/>
<path stroke="#a19e9c" vector-effect="non-scaling-stroke" d="
  M 125.64 34.43
  Q 124.98 33.61 124.12 33.32
  Q 123.61 33.16 123.57 33.69
  L 122.60 47.83"
/>
<path stroke="#a1521d" vector-effect="non-scaling-stroke" d="
  M 125.64 34.43
  C 122.94 38.69 124.77 43.57 122.60 47.83"
/>
<path stroke="#ffb480" vector-effect="non-scaling-stroke" d="
  M 74.16 72.28
  C 82.58 74.33 86.50 64.50 87.74 58.23
  Q 90.25 45.44 80.24 37.01
  Q 78.17 35.27 75.65 36.15"
/>
<path stroke="#c0c7ca" vector-effect="non-scaling-stroke" d="
  M 75.65 36.15
  Q 68.93 36.42 65.79 41.13
  Q 56.79 54.63 66.67 68.58
  Q 69.20 72.15 74.16 72.28"
/>
<path stroke="#c07c4b" vector-effect="non-scaling-stroke" d="
  M 75.65 36.15
  Q 68.62 39.42 66.00 45.72
  Q 64.07 50.38 64.28 54.42"
/>
<path stroke="#92674f" vector-effect="non-scaling-stroke" d="
  M 64.28 54.42
  Q 63.81 59.24 66.12 62.99"
/>
<path stroke="#c07c4b" vector-effect="non-scaling-stroke" d="
  M 66.12 62.99
  Q 68.26 69.72 74.16 72.28"
/>
<path stroke="#d15404" vector-effect="non-scaling-stroke" d="
  M 66.12 62.99
  L 64.28 54.42"
/>
</g>
<path fill="#ff6800" d="
  M 0.00 0.00
  L 263.00 0.00
  L 263.00 96.00
  L 0.00 96.00
  L 0.00 0.00
  Z
  M 48.5078 22.1116
  A 10.41 8.30 87.7 0 0 56.3833 11.3769
  A 10.41 8.30 87.7 0 0 47.6722 1.3084
  A 10.41 8.30 87.7 0 0 39.7967 12.0431
  A 10.41 8.30 87.7 0 0 48.5078 22.1116
  Z
  M 160.46 33.51
  L 140.43 70.51
  L 132.43 58.97
  A 0.94 0.94 0.0 0 1 133.04 57.51
  C 141.81 55.95 147.89 50.30 149.01 41.32
  C 151.99 17.37 118.36 14.78 102.64 15.29
  Q 102.06 15.30 101.97 15.88
  L 99.86 29.43
  A 0.85 0.85 0.0 0 0 100.43 30.37
  Q 103.64 31.45 106.96 30.65
  A 0.41 0.41 0.0 0 1 107.46 31.15
  L 104.08 45.53
  L 99.48 33.79
  Q 99.31 33.36 98.87 33.48
  Q 98.60 33.55 98.24 33.46
  C 89.12 14.18 64.75 10.05 52.34 29.32
  C 43.57 42.92 45.67 55.67 50.57 70.84
  Q 50.15 71.23 50.18 70.85
  L 38.56 73.20
  Q 38.43 73.04 38.32 72.92
  Q 38.09 72.67 38.07 72.33
  L 37.34 57.72
  L 36.77 47.77
  L 35.48 12.74
  Q 35.46 12.18 34.93 12.00
  L 29.30 10.09
  L 8.83 15.89
  A 0.81 0.79 -11.7 0 0 8.25 16.76
  L 17.38 90.75
  Q 17.49 91.66 18.40 91.58
  Q 36.09 90.13 54.31 88.54
  C 54.93 88.49 55.34 88.19 55.93 87.93
  Q 56.61 87.92 57.51 87.42
  Q 60.25 88.29 61.51 82.60
  Q 67.06 84.98 68.75 85.50
  C 78.81 88.58 89.45 83.07 95.48 74.73
  C 98.55 70.48 99.29 64.65 100.40 59.47
  L 95.37 88.02
  A 0.40 0.40 0.0 0 0 95.81 88.49
  Q 104.71 87.52 113.69 86.73
  C 118.00 86.34 117.76 81.66 118.26 78.51
  C 120.24 76.77 119.76 73.36 119.44 70.98
  A 0.85 0.84 69.0 0 1 119.79 70.19
  L 121.61 68.92
  L 131.46 91.24
  A 0.67 0.67 0.0 0 0 132.19 91.64
  L 150.53 88.66
  A 0.72 0.71 69.5 0 0 151.02 87.58
  L 146.15 79.63
  Q 146.87 79.40 146.98 79.13
  L 153.45 82.54
  Q 153.99 82.82 154.24 82.27
  L 159.37 70.82
  Q 159.60 70.30 160.16 70.36
  L 176.52 71.92
  L 180.03 83.38
  L 182.36 84.76
  Q 183.34 86.10 184.76 86.05
  Q 190.78 85.87 201.02 85.01
  Q 201.55 84.96 201.47 84.44
  L 200.87 80.37
  L 202.76 78.38
  L 211.62 69.30
  L 217.04 82.61
  A 1.07 1.06 2.5 0 0 217.55 83.16
  L 224.32 86.52
  L 225.54 87.02
  Q 226.01 87.21 226.43 86.91
  L 238.24 78.57
  A 0.59 0.58 -29.8 0 0 238.44 77.85
  L 227.28 52.71
  A 1.50 1.50 0.0 0 1 227.55 51.07
  L 247.99 29.02
  A 1.04 1.04 0.0 0 0 248.08 27.70
  L 240.38 16.86
  Q 240.11 16.48 239.64 16.58
  Q 238.77 16.77 238.54 17.31
  C 234.45 17.35 231.69 18.17 228.89 21.46
  Q 224.95 26.08 221.04 30.72
  Q 220.72 31.10 220.87 31.58
  Q 221.37 33.17 222.42 34.36
  Q 222.17 35.21 221.59 35.45
  Q 221.00 35.70 220.76 35.10
  L 211.80 12.17
  A 0.91 0.91 0.0 0 0 210.60 11.66
  L 196.53 17.61
  L 192.86 19.18
  Q 191.98 19.56 192.33 20.44
  L 202.50 46.17
  A 2.12 2.11 -31.3 0 1 201.92 48.53
  L 194.82 54.74
  L 193.26 55.63
  L 179.52 10.23
  Q 179.34 9.64 178.72 9.68
  L 174.07 9.98
  Q 173.47 10.02 173.18 10.55
  L 160.46 33.51
  Z"
/>
<path fill="#ffffff" d="
  M 48.5078 22.1116
  A 10.41 8.30 87.7 0 1 39.7967 12.0431
  A 10.41 8.30 87.7 0 1 47.6722 1.3084
  A 10.41 8.30 87.7 0 1 56.3833 11.3769
  A 10.41 8.30 87.7 0 1 48.5078 22.1116
  Z
  M 48.8136 17.7501
  A 5.30 3.75 86.5 0 0 52.2330 12.2311
  A 5.30 3.75 86.5 0 0 48.1664 7.1699
  A 5.30 3.75 86.5 0 0 44.7470 12.6889
  A 5.30 3.75 86.5 0 0 48.8136 17.7501
  Z"
/>
<ellipse fill="#ff6800" cx="0.00" cy="0.00" transform="translate(48.49,12.46) rotate(86.5)" rx="5.30" ry="3.75"/>
<path fill="#ffffff" d="
  M 193.26 55.63
  L 194.86 59.63
  Q 195.17 60.41 195.59 59.68
  L 196.43 58.24
  L 207.75 47.21
  A 2.06 2.04 -33.7 0 0 208.21 44.95
  L 196.53 17.61
  L 210.60 11.66
  A 0.91 0.91 0.0 0 1 211.80 12.17
  L 220.76 35.10
  Q 221.00 35.70 221.59 35.45
  Q 222.17 35.21 222.42 34.36
  L 238.54 17.31
  Q 238.77 16.77 239.64 16.58
  Q 240.11 16.48 240.38 16.86
  L 248.08 27.70
  A 1.04 1.04 0.0 0 1 247.99 29.02
  L 227.55 51.07
  A 1.50 1.50 0.0 0 0 227.28 52.71
  L 238.44 77.85
  A 0.59 0.58 -29.8 0 1 238.24 78.57
  L 226.43 86.91
  Q 226.01 87.21 225.54 87.02
  L 224.32 86.52
  L 216.49 64.63
  Q 216.28 64.06 215.88 64.51
  L 211.62 69.30
  L 202.76 78.38
  L 197.99 65.00
  A 0.40 0.40 0.0 0 0 197.41 64.79
  L 197.19 64.92
  Q 196.72 65.20 196.86 65.72
  L 200.87 80.37
  L 201.47 84.44
  Q 201.55 84.96 201.02 85.01
  Q 190.78 85.87 184.76 86.05
  Q 183.34 86.10 182.36 84.76
  L 180.30 72.20
  Q 177.61 72.48 176.52 71.92
  L 160.16 70.36
  Q 159.60 70.30 159.37 70.82
  L 154.24 82.27
  Q 153.99 82.82 153.45 82.54
  L 146.98 79.13
  Q 145.83 75.96 143.85 72.99
  C 143.14 71.92 142.66 70.28 143.20 69.26
  Q 152.19 52.50 161.03 35.65
  Q 161.28 35.19 160.96 34.77
  Q 160.48 34.14 160.46 33.51
  L 173.18 10.55
  Q 173.47 10.02 174.07 9.98
  L 178.72 9.68
  Q 179.34 9.64 179.52 10.23
  L 193.26 55.63
  Z
  M 171.24 57.06
  L 175.88 57.22
  Q 176.80 57.26 176.64 56.34
  L 174.41 43.71
  L 174.19 41.64
  Q 174.08 40.54 173.60 41.54
  L 166.91 55.71
  Q 166.62 56.32 167.25 56.56
  Q 169.04 57.25 171.24 57.06
  Z"
/>
<path fill="#ffffff" d="
  M 29.30 10.09
  L 30.45 39.51
  L 31.65 73.81
  Q 31.68 74.61 32.47 74.43
  L 37.42 73.29
  L 38.56 73.20
  L 50.18 70.85
  L 53.83 78.06
  Q 53.67 78.52 53.19 78.93
  Q 52.84 79.23 53.09 79.62
  Q 55.52 83.46 55.93 87.93
  C 55.34 88.19 54.93 88.49 54.31 88.54
  Q 36.09 90.13 18.40 91.58
  Q 17.49 91.66 17.38 90.75
  L 8.25 16.76
  A 0.81 0.79 -11.7 0 1 8.83 15.89
  L 29.30 10.09
  Z"
/>
<path fill="#d2d2d5" d="
  M 29.30 10.09
  L 34.93 12.00
  Q 35.46 12.18 35.48 12.74
  L 36.77 47.77
  Q 35.93 48.37 35.27 47.66
  Q 34.91 47.27 35.00 46.75
  Q 35.10 46.12 34.79 45.54
  A 0.31 0.31 0.0 0 0 34.22 45.75
  Q 34.47 47.03 33.79 48.25
  A 0.74 0.73 65.5 0 1 32.43 47.74
  Q 33.28 43.65 32.01 39.67
  Q 31.87 39.23 31.41 39.24
  Q 30.93 39.25 30.45 39.51
  L 29.30 10.09
  Z"
/>
<path fill="#ffffff" d="
  M 140.43 70.51
  C 142.29 73.08 145.73 76.18 146.15 79.63
  L 151.02 87.58
  A 0.72 0.71 69.5 0 1 150.53 88.66
  L 132.19 91.64
  A 0.67 0.67 0.0 0 1 131.46 91.24
  L 121.61 68.92
  L 119.09 63.97
  Q 118.77 63.32 118.74 64.05
  L 118.26 78.51
  C 117.76 81.66 118.00 86.34 113.69 86.73
  Q 104.71 87.52 95.81 88.49
  A 0.40 0.40 0.0 0 1 95.37 88.02
  L 100.40 59.47
  L 104.08 45.53
  L 107.46 31.15
  A 0.41 0.41 0.0 0 0 106.96 30.65
  Q 103.64 31.45 100.43 30.37
  A 0.85 0.85 0.0 0 1 99.86 29.43
  L 101.97 15.88
  Q 102.06 15.30 102.64 15.29
  C 118.36 14.78 151.99 17.37 149.01 41.32
  C 147.89 50.30 141.81 55.95 133.04 57.51
  A 0.94 0.94 0.0 0 0 132.43 58.97
  L 140.43 70.51
  Z
  M 122.60 47.83
  Q 121.96 49.57 122.43 50.33
  A 0.69 0.69 0.0 0 0 123.33 50.57
  Q 131.74 46.18 128.52 36.68
  Q 127.98 35.09 125.64 34.43
  Q 124.98 33.61 124.12 33.32
  Q 123.61 33.16 123.57 33.69
  L 122.60 47.83
  Z"
/>
<path fill="#ffffff" d="
  M 98.24 33.46
  Q 104.39 46.20 100.40 59.47
  C 99.29 64.65 98.55 70.48 95.48 74.73
  C 89.45 83.07 78.81 88.58 68.75 85.50
  Q 67.06 84.98 61.51 82.60
  Q 54.46 78.27 50.57 70.84
  C 45.67 55.67 43.57 42.92 52.34 29.32
  C 64.75 10.05 89.12 14.18 98.24 33.46
  Z
  M 74.16 72.28
  C 82.58 74.33 86.50 64.50 87.74 58.23
  Q 90.25 45.44 80.24 37.01
  Q 78.17 35.27 75.65 36.15
  Q 68.93 36.42 65.79 41.13
  Q 56.79 54.63 66.67 68.58
  Q 69.20 72.15 74.16 72.28
  Z"
/>
<path fill="#d2d2d5" d="
  M 238.54 17.31
  L 222.42 34.36
  Q 221.37 33.17 220.87 31.58
  Q 220.72 31.10 221.04 30.72
  Q 224.95 26.08 228.89 21.46
  C 231.69 18.17 234.45 17.35 238.54 17.31
  Z"
/>
<path fill="#a8acb0" d="
  M 196.53 17.61
  L 208.21 44.95
  A 2.06 2.04 -33.7 0 1 207.75 47.21
  L 196.43 58.24
  Q 194.72 56.11 194.82 54.74
  L 201.92 48.53
  A 2.12 2.11 -31.3 0 0 202.50 46.17
  L 192.33 20.44
  Q 191.98 19.56 192.86 19.18
  L 196.53 17.61
  Z"
/>
<path fill="#423c39" d="
  M 104.08 45.53
  L 100.40 59.47
  Q 104.39 46.20 98.24 33.46
  Q 98.60 33.55 98.87 33.48
  Q 99.31 33.36 99.48 33.79
  L 104.08 45.53
  Z"
/>
<path fill="#423c39" d="
  M 125.64 34.43
  C 122.94 38.69 124.77 43.57 122.60 47.83
  L 123.57 33.69
  Q 123.61 33.16 124.12 33.32
  Q 124.98 33.61 125.64 34.43
  Z"
/>
<path fill="#818f95" d="
  M 160.46 33.51
  Q 160.48 34.14 160.96 34.77
  Q 161.28 35.19 161.03 35.65
  Q 152.19 52.50 143.20 69.26
  C 142.66 70.28 143.14 71.92 143.85 72.99
  Q 145.83 75.96 146.98 79.13
  Q 146.87 79.40 146.15 79.63
  C 145.73 76.18 142.29 73.08 140.43 70.51
  L 160.46 33.51
  Z"
/>
<path fill="#ff6800" d="
  M 125.64 34.43
  Q 127.98 35.09 128.52 36.68
  Q 131.74 46.18 123.33 50.57
  A 0.69 0.69 0.0 0 1 122.43 50.33
  Q 121.96 49.57 122.60 47.83
  C 124.77 43.57 122.94 38.69 125.64 34.43
  Z"
/>
<path fill="#818f95" d="
  M 75.65 36.15
  Q 68.62 39.42 66.00 45.72
  Q 64.07 50.38 64.28 54.42
  Q 63.81 59.24 66.12 62.99
  Q 68.26 69.72 74.16 72.28
  Q 69.20 72.15 66.67 68.58
  Q 56.79 54.63 65.79 41.13
  Q 68.93 36.42 75.65 36.15
  Z"
/>
<path fill="#ff6800" d="
  M 75.65 36.15
  Q 78.17 35.27 80.24 37.01
  Q 90.25 45.44 87.74 58.23
  C 86.50 64.50 82.58 74.33 74.16 72.28
  Q 68.26 69.72 66.12 62.99
  L 64.28 54.42
  Q 64.07 50.38 66.00 45.72
  Q 68.62 39.42 75.65 36.15
  Z"
/>
<path fill="#7a7a7c" d="
  M 36.77 47.77
  L 37.34 57.72
  L 37.42 73.29
  L 32.47 74.43
  Q 31.68 74.61 31.65 73.81
  L 30.45 39.51
  Q 30.93 39.25 31.41 39.24
  Q 31.87 39.23 32.01 39.67
  Q 33.28 43.65 32.43 47.74
  A 0.74 0.73 65.5 0 0 33.79 48.25
  Q 34.47 47.03 34.22 45.75
  A 0.31 0.31 0.0 0 1 34.79 45.54
  Q 35.10 46.12 35.00 46.75
  Q 34.91 47.27 35.27 47.66
  Q 35.93 48.37 36.77 47.77
  Z"
/>
<path fill="#ff6800" d="
  M 174.41 43.71
  L 172.74 47.34
  Q 172.54 47.79 172.70 48.25
  Q 173.10 49.35 173.01 50.52
  L 173.04 54.23
  Q 173.04 54.65 173.46 54.62
  Q 173.76 54.60 173.93 54.73
  L 174.21 56.44
  Q 174.30 56.97 173.76 56.99
  L 171.24 57.06
  Q 169.04 57.25 167.25 56.56
  Q 166.62 56.32 166.91 55.71
  L 173.60 41.54
  Q 174.08 40.54 174.19 41.64
  L 174.41 43.71
  Z"
/>
<path fill="#818f95" d="
  M 174.41 43.71
  L 176.64 56.34
  Q 176.80 57.26 175.88 57.22
  L 171.24 57.06
  L 173.76 56.99
  Q 174.30 56.97 174.21 56.44
  L 173.93 54.73
  Q 174.42 52.47 173.01 50.52
  Q 173.10 49.35 172.70 48.25
  Q 172.54 47.79 172.74 47.34
  L 174.41 43.71
  Z"
/>
<path fill="#a33f08" d="
  M 173.01 50.52
  Q 174.42 52.47 173.93 54.73
  Q 173.76 54.60 173.46 54.62
  Q 173.04 54.65 173.04 54.23
  L 173.01 50.52
  Z"
/>
<path fill="#a33f08" d="
  M 64.28 54.42
  L 66.12 62.99
  Q 63.81 59.24 64.28 54.42
  Z"
/>
<path fill="#423c39" d="
  M 194.82 54.74
  Q 194.72 56.11 196.43 58.24
  L 195.59 59.68
  Q 195.17 60.41 194.86 59.63
  L 193.26 55.63
  L 194.82 54.74
  Z"
/>
<path fill="#a33f08" d="
  M 37.34 57.72
  L 38.07 72.33
  Q 38.09 72.67 38.32 72.92
  Q 38.43 73.04 38.56 73.20
  L 37.42 73.29
  L 37.34 57.72
  Z"
/>
<path fill="#a33f08" d="
  M 121.61 68.92
  L 119.79 70.19
  A 0.85 0.84 69.0 0 0 119.44 70.98
  C 119.76 73.36 120.24 76.77 118.26 78.51
  L 118.74 64.05
  Q 118.77 63.32 119.09 63.97
  L 121.61 68.92
  Z"
/>
<path fill="#a8acb0" d="
  M 224.32 86.52
  L 217.55 83.16
  A 1.07 1.06 2.5 0 1 217.04 82.61
  L 211.62 69.30
  L 215.88 64.51
  Q 216.28 64.06 216.49 64.63
  L 224.32 86.52
  Z"
/>
<path fill="#a8acb0" d="
  M 202.76 78.38
  L 200.87 80.37
  L 196.86 65.72
  Q 196.72 65.20 197.19 64.92
  L 197.41 64.79
  A 0.40 0.40 0.0 0 1 197.99 65.00
  L 202.76 78.38
  Z"
/>
<path fill="#423c39" d="
  M 50.57 70.84
  Q 54.46 78.27 61.51 82.60
  Q 60.25 88.29 57.51 87.42
  Q 59.07 86.68 59.66 85.60
  Q 59.93 85.10 59.56 84.67
  L 53.83 78.06
  L 50.18 70.85
  Q 50.15 71.23 50.57 70.84
  Z"
/>
<path fill="#423c39" d="
  M 176.52 71.92
  Q 177.61 72.48 180.30 72.20
  Q 178.41 77.27 180.03 83.38
  L 176.52 71.92
  Z"
/>
<path fill="#818f95" d="
  M 180.30 72.20
  L 182.36 84.76
  L 180.03 83.38
  Q 178.41 77.27 180.30 72.20
  Z"
/>
<path fill="#a8acb0" d="
  M 53.83 78.06
  L 59.56 84.67
  Q 59.93 85.10 59.66 85.60
  Q 59.07 86.68 57.51 87.42
  Q 56.61 87.92 55.93 87.93
  Q 55.52 83.46 53.09 79.62
  Q 52.84 79.23 53.19 78.93
  Q 53.67 78.52 53.83 78.06
  Z"
/>
</svg>
